<?xml version="1.0" encoding="UTF-8"?>
<svg xmlns="http://www.w3.org/2000/svg" xmlns:xlink="http://www.w3.org/1999/xlink" width="128px" height="128px" viewBox="0 0 128 128" version="1.1">
<g id="surface1">
<path style=" stroke:none;fill-rule:nonzero;fill:rgb(40.392157%,22.745098%,71.764708%);fill-opacity:1;" d="M 70.398438 102.398438 L 19.199219 102.398438 C 15.667969 102.390625 12.808594 99.53125 12.800781 95.996094 L 12.800781 38.398438 C 12.808594 34.867188 15.667969 32.007812 19.199219 32 L 25.601562 32 C 36.203125 31.996094 44.796875 23.40625 44.800781 12.800781 L 83.199219 12.800781 C 83.203125 23.40625 91.792969 31.996094 102.398438 32 L 108.800781 32 C 112.332031 32.007812 115.191406 34.867188 115.199219 38.398438 L 115.199219 60.800781 C 115.199219 64.335938 118.066406 67.199219 121.601562 67.199219 C 125.136719 67.199219 128 64.335938 128 60.800781 L 128 38.398438 C 127.996094 27.796875 119.40625 19.203125 108.800781 19.199219 L 102.398438 19.199219 C 98.867188 19.191406 96.007812 16.332031 96 12.800781 C 95.996094 5.726562 90.273438 0.00390625 83.199219 0 L 44.800781 0 C 37.726562 0.00390625 32.003906 5.726562 32 12.800781 C 31.992188 16.332031 29.132812 19.191406 25.601562 19.199219 L 19.199219 19.199219 C 8.59375 19.203125 0.00390625 27.796875 0 38.398438 L 0 96 C 0.00390625 106.605469 8.59375 115.195312 19.199219 115.199219 L 70.398438 115.199219 C 73.933594 115.199219 76.800781 112.335938 76.800781 108.800781 C 76.796875 105.265625 73.933594 102.398438 70.398438 102.398438 Z M 70.398438 102.398438 "/>
<path style=" stroke:none;fill-rule:nonzero;fill:rgb(40.392157%,22.745098%,71.764708%);fill-opacity:1;" d="M 38.398438 64 C 38.40625 78.140625 49.859375 89.59375 64 89.601562 C 78.140625 89.59375 89.59375 78.140625 89.601562 64 C 89.59375 49.859375 78.140625 38.40625 64 38.398438 C 49.859375 38.40625 38.402344 49.859375 38.398438 64 C 38.398438 67.535156 41.265625 70.398438 44.800781 70.398438 C 48.335938 70.398438 51.199219 67.535156 51.199219 64 C 51.210938 56.933594 56.933594 51.210938 64 51.199219 C 71.066406 51.210938 76.789062 56.933594 76.800781 64 C 76.789062 71.066406 71.066406 76.789062 64 76.800781 C 56.933594 76.789062 51.210938 71.066406 51.199219 64 C 51.199219 60.464844 48.335938 57.601562 44.800781 57.601562 C 41.265625 57.601562 38.398438 60.464844 38.398438 64 Z M 38.398438 64 "/>
<path style=" stroke:none;fill-rule:nonzero;fill:rgb(40.392157%,22.745098%,71.764708%);fill-opacity:1;" d="M 103.472656 79.648438 L 90.671875 98.851562 C 89.359375 100.820312 89.238281 103.332031 90.355469 105.421875 C 91.472656 107.507812 93.628906 108.800781 95.996094 108.800781 L 109.636719 108.800781 L 103.46875 118.050781 C 101.511719 120.988281 102.304688 124.964844 105.246094 126.925781 C 108.183594 128.886719 112.160156 128.089844 114.121094 125.148438 L 126.921875 105.949219 C 128.234375 103.980469 128.355469 101.46875 127.238281 99.378906 C 126.121094 97.292969 123.960938 96 121.59375 96 L 107.953125 96 L 114.121094 86.75 C 116.082031 83.808594 115.289062 79.835938 112.347656 77.875 C 109.40625 75.914062 105.433594 76.707031 103.472656 79.648438 Z M 103.472656 79.648438 "/>
</g>
</svg>
